# xmcd
#
# Track frame offsets: 
#        151
#        12854
#        27973
#        46897
#        66643
#        86963
#        109137
#        130496
#        143412
#        159838
#        177534
#        197096
#        212095
#        227330
#        242112
#        266402
#        283633
#        303887
#        316885
#
# Disc length: 4446 seconds
#
# Revision: 0
# Processed by: cddbd v1.5.1PL0 Copyright (c) Steve Scherf et al.
# Submitted via: ExactAudioCopy v0.95a3
#
DISCID=09115c13
DTITLE=Various Artist - Вечеринка От Игорька
DYEAR=1900
DGENRE=Pop
TTITLE0=Игорёк - Как Мне Жить
TTITLE1=Тату - Я Сошла С Ума
TTITLE2=Руки Вверх! - Думала
TTITLE3=Наталья Ветлицкая - Мальчики
TTITLE4=Гости Из Будущего - Так Важно
TTITLE5=Иванушки International - Реви
TTITLE6=Стрелки - Поверю В Любовь
TTITLE7=Жасмин - Они Не Я
TTITLE8=Леонид Агутин - Луна
TTITLE9=Филипп Киркоров - Чили Ча Ча (Hot Latino Mix)
TTITLE10=Борис Моисеев - Уличная Плясунья
TTITLE11=Виа Гра - Попытка №5
TTITLE12=Игорёк - Подождём
TTITLE13=Асия - Витамин
TTITLE14=Валерия - Не Обижай Меня
TTITLE15=Блестящие - Белым Снегом (Remix)
TTITLE16=Таня Буланова and Dj Цветкоff - Лето-Зима
TTITLE17=Божья Коровка - Самая Любимая Моя
TTITLE18=Хамелеон - Апельсины В Кожуре (Happy New Year)
EXTD=
EXTT0=
EXTT1=
EXTT2=
EXTT3=
EXTT4=
EXTT5=
EXTT6=
EXTT7=
EXTT8=
EXTT9=
EXTT10=
EXTT11=
EXTT12=
EXTT13=
EXTT14=
EXTT15=
EXTT16=
EXTT17=
EXTT18=
PLAYORDER=
